<svg width="820" height="1250" viewBox="0 0 820 1250" fill="none" xmlns="http://www.w3.org/2000/svg">
<path fill-rule="evenodd" clip-rule="evenodd" d="M400.817 23.2682C458.648 29.0798 517.517 18.7036 571.598 49.8106C627.473 81.9498 684.345 128.152 715.619 204.34C746.51 279.597 724.348 378.367 741.187 462.962C759.397 554.441 831.307 627.584 818.477 721.072C805.737 813.901 716.578 833.502 679.741 910.694C640.155 993.645 649.82 1121.76 596.725 1185.75C544.17 1249.08 468.116 1255.7 400.817 1246.84C335.381 1238.22 272.709 1196.48 220.885 1136.26C172.889 1080.48 153.972 988.604 116.783 916.773C80.1928 846.1 15.773 801.563 2.51603 714.481C-10.7417 627.394 31.9893 544.835 46.9996 458.383C61.5954 374.318 61.1498 284.577 90.221 209.343C121.107 129.412 161.196 48.7164 218.585 14.3352C275.7 -19.8819 339.408 17.097 400.817 23.2682Z" fill="#5B5B5B"/>
</svg>
