<svg width="808" height="1250" viewBox="0 0 808 1250" fill="none" xmlns="http://www.w3.org/2000/svg">
<path fill-rule="evenodd" clip-rule="evenodd" d="M436.607 3.23342C527.201 -15.4208 625.113 48.369 685.005 149.951C740.925 244.793 713.591 388.287 735.206 509.675C754.938 620.488 820.737 716.009 805.82 828.434C790.377 944.821 720.921 1025.44 657.131 1098.09C591.44 1172.92 519.36 1260.49 436.607 1248.97C355.379 1237.67 311.885 1108.21 244.488 1040.66C173.984 969.989 74.0469 954.88 33.2919 844.712C-9.7161 728.454 -10.8731 576.345 28.7687 457.533C66.6768 343.918 165.492 319.241 234.124 242.791C304.91 163.94 348.632 21.3482 436.607 3.23342Z" fill="#ADADAD"/>
</svg>
